#!OML:ASF I:\Actors\actors\Patient Classification 1\Patient 1\Session 1\Subject1.ASF
:FULLY-SPECIFIED
:DEGREES
1446
root 0.181744 17.5214 8.0623 11.6539 -1.61359 -8.1012
lowerback 2.874 1.15959 6.88183
upperback -8.10379 2.19058 0.760849
thorax -10.0501 0.558787 -3.27991
lowerneck -8.92755 -6.42709 -4.53781
upperneck 37.3204 -10.6277 5.08082
head 15.0303 -4.58885 1.28143
rclavicle -2.05742e-014 -9.14409e-015
rhumerus 23.1763 34.8358 -52.9845
rradius 129.595
rwrist 9.39642
rhand 46.7601 -39.5727
rfingers 7.12502
rthumb 67.7015 -41.4925
lclavicle -2.05742e-014 -9.14409e-015
lhumerus -21.2251 -60.4606 73.6261
lradius 105.612
lwrist -5.02404
lhand -34.1783 -28.3851
lfingers 7.12502
lthumb -7.35167 1.46714
rfemur -7.08894 30.6947 19.8675
rtibia 0.28354
rfoot -11.309 -31.141
rtoes 1.95483
lfemur 4.86291 -59.6557 -12.6463
ltibia -4.85318
lfoot -54.0787 65.451
ltoes 28.0898
1447
root 0.183142 17.5221 8.05808 11.6277 -1.90736 -7.98722
lowerback 2.87874 1.23966 6.9439
upperback -8.02603 2.29821 0.744154
thorax -9.95166 0.610853 -3.34298
lowerneck -8.58821 -6.40794 -4.85549
upperneck 37.1979 -10.5103 5.06778
head 14.9044 -4.5962 1.36199
rclavicle 2.50966e-014 1.82882e-014
rhumerus 23.7752 34.029 -53.2673
rradius 129.47
rwrist 7.54405
rhand 42.8472 -39.1813
rfingers 7.12502
rthumb 64.7092 -46.835
lclavicle 2.50966e-014 1.82882e-014
lhumerus -21.0226 -60.897 73.3156
lradius 105.594
lwrist -4.93578
lhand -34.0226 -28.6484
lfingers 7.12502
lthumb -7.20143 1.20902
rfemur -7.15451 30.6059 19.6998
rtibia 0.32648
rfoot -11.1249 -30.8198
rtoes 1.56297
lfemur 5.13987 -59.6836 -13.066
ltibia -4.83374
lfoot -54.8305 65.4741
ltoes 28.4496
1448
root 0.184899 17.5227 8.0503 11.6237 -2.15619 -7.91174
lowerback 2.93495 1.42461 7.17881
upperback -7.94888 2.54694 0.498775
thorax -9.85509 0.70778 -3.76381
lowerneck -8.22769 -6.49488 -4.69275
upperneck 36.9482 -10.6767 5.11383
head 14.7052 -4.65374 1.34012
rclavicle -1.81391e-014 -3.18055e-015
rhumerus 24.1239 33.0809 -53.6263
rradius 129.417
rwrist 6.73719
rhand 40.5264 -38.4452
rfingers 7.12502
rthumb 62.8301 -48.8657
lclavicle -1.81391e-014 -3.18055e-015
lhumerus -20.1264 -61.8601 72.2502
lradius 105.583
lwrist -4.6324
lhand -33.7672 -28.9476
lfingers 7.12502
lthumb -6.95486 0.918141
rfemur -7.24442 30.7265 19.5537
rtibia 0.364526
rfoot -11.0505 -30.7204
rtoes 1.43164
lfemur 5.18435 -59.5055 -13.218
ltibia -4.83283
lfoot -55.0363 65.3864
ltoes 28.7089
1449
root 0.187628 17.5227 8.04117 11.6413 -2.38504 -7.84525
lowerback 2.99153 1.72256 7.50483
upperback -7.78983 2.94093 0.12284
thorax -9.63494 0.871158 -4.388
lowerneck -8.20884 -6.71291 -4.14816
upperneck 36.6677 -11.0661 5.0381
head 14.5493 -4.76101 1.15605
rclavicle 8.49804e-015 9.93923e-015
rhumerus 24.3661 31.8593 -53.8346
rradius 129.488
rwrist 6.73499
rhand 40.0168 -37.3583
rfingers 7.12502
rthumb 62.4092 -48.3332
lclavicle 8.49804e-015 9.93923e-015
lhumerus -18.2588 -63.1603 70.3563
lradius 105.594
lwrist -4.36566
lhand -33.8112 -28.956
lfingers 7.12502
lthumb -6.99734 0.908303
rfemur -7.36441 30.7139 19.408
rtibia 0.401161
rfoot -10.893 -30.5363
rtoes 1.0028
lfemur 5.04436 -59.0859 -13.2005
ltibia -4.84079
lfoot -54.5802 65.2347
ltoes 28.7364
1450
root 0.187653 17.5228 8.03226 11.6701 -2.62462 -7.78892
lowerback 2.81191 1.67868 7.39671
upperback -7.56893 2.85994 0.314903
thorax -9.30255 0.868323 -4.10079
lowerneck -8.01977 -6.53833 -4.31032
upperneck 36.3136 -10.666 4.86183
head 14.3073 -4.64585 1.18206
rclavicle -2.82274e-014 -1.55052e-014
rhumerus 25.7651 31.7604 -53.289
rradius 129.826
rwrist 6.409
rhand 40.7654 -36.7252
rfingers 7.12502
rthumb 63.0265 -46.8794
lclavicle -2.82274e-014 -1.55052e-014
lhumerus -17.9474 -63.1244 69.9753
lradius 105.62
lwrist -4.65006
lhand -34.1813 -28.6108
lfingers 7.12502
lthumb -7.35458 1.24134
rfemur -7.50819 30.6883 19.2708
rtibia 0.44702
rfoot -10.7157 -30.3341
rtoes 0.68223
lfemur 4.94117 -58.7547 -13.1955
ltibia -4.85224
lfoot -54.0729 65.2075
ltoes 28.6571
1451
root 0.18669 17.5235 8.02354 11.7002 -2.81563 -7.78736
lowerback 2.34024 1.59988 7.22728
upperback -7.09644 2.69528 0.614738
thorax -8.53568 0.855642 -3.64268
lowerneck -8.25312 -6.37188 -4.54755
upperneck 35.8875 -10.2597 4.71527
head 14.1368 -4.52118 1.21655
rclavicle 2.33696e-014 -6.75868e-015
rhumerus 27.7182 31.6539 -52.2668
rradius 130.305
rwrist 5.45517
rhand 42.3592 -37.0925
rfingers 7.12502
rthumb 64.3196 -45.3629
lclavicle 2.33696e-014 -6.75868e-015
lhumerus -16.8973 -62.7476 69.0486
lradius 105.619
lwrist -4.79694
lhand -34.5401 -28.2592
lfingers 7.12502
lthumb -7.70091 1.58061
rfemur -7.63468 30.7942 19.201
rtibia 0.488575
rfoot -10.6393 -30.2744
rtoes 0.705594
lfemur 4.81478 -58.4473 -13.0937
ltibia -4.87039
lfoot -53.5921 65.1863
ltoes 28.5935
1452
root 0.186489 17.5246 8.01436 11.7427 -2.91919 -7.81723
lowerback 2.84196 1.71234 7.53623
upperback -7.30415 2.91775 0.489404
thorax -9.02271 0.912288 -3.99295
lowerneck -8.05892 -6.44285 -4.3845
upperneck 35.8854 -10.3453 4.55056
head 14.0751 -4.56223 1.11744
rclavicle -6.78353e-015 -1.63003e-014
rhumerus 27.7763 31.6574 -52.0283
rradius 130.836
rwrist 4.37235
rhand 44.4947 -37.8763
rfingers 7.12502
rthumb 65.9994 -43.2962
lclavicle -6.78353e-015 -1.63003e-014
lhumerus -17.2354 -63.5872 69.2239
lradius 105.731
lwrist -4.71092
lhand -34.8043 -28.3751
lfingers 7.12502
lthumb -7.95585 1.45517
rfemur -7.75854 30.8678 19.1745
rtibia 0.525825
rfoot -10.5951 -30.2623
rtoes 0.683515
lfemur 4.57478 -58.0811 -12.8439
ltibia -4.89497
lfoot -53.2686 64.995
ltoes 28.6587
1453
root 0.18673 17.5253 8.00491 11.7986 -2.94609 -7.84794
lowerback 3.02521 1.73077 7.69854
upperback -7.32536 2.97144 0.458993
thorax -9.14269 0.919598 -4.12937
lowerneck -7.94842 -6.4404 -3.97796
upperneck 35.6726 -10.2933 4.21761
head 13.8967 -4.53524 0.92883
rclavicle 2.36926e-014 2.70347e-014
rhumerus 28.1338 31.8808 -51.5916
rradius 131.18
rwrist 3.32018
rhand 46.1596 -38.103
rfingers 7.12502
rthumb 67.2594 -41.0029
lclavicle 2.36926e-014 2.70347e-014
lhumerus -17.296 -64.0229 69.1354
lradius 105.817
lwrist -4.66247
lhand -34.8091 -28.6659
lfingers 7.12502
lthumb -7.96048 1.1642
rfemur -7.88397 30.8692 19.1447
rtibia 0.536288
rfoot -10.555 -30.2358
rtoes 0.818036
lfemur 4.3743 -58.0282 -12.625
ltibia -4.89414
lfoot -53.51 64.8583
ltoes 28.8516
1454
root 0.187639 17.5254 7.99581 11.8445 -2.91852 -7.82454
lowerback 3.08947 1.59212 7.67657
upperback -7.29364 2.79749 0.589961
thorax -9.17497 0.840677 -3.96245
lowerneck -7.7442 -6.30515 -3.81589
upperneck 35.3522 -10.0121 3.95844
head 13.6596 -4.43686 0.850047
rclavicle -4.02539e-015 -1.78906e-014
rhumerus 28.7801 32.5679 -51.0912
rradius 131.453
rwrist 2.01086
rhand 46.7274 -38.3087
rfingers 7.12502
rthumb 67.6776 -40.2828
lclavicle -4.02539e-015 -1.78906e-014
lhumerus -17.8787 -63.9322 69.5138
lradius 105.904
lwrist -4.72525
lhand -34.5298 -28.7169
lfingers 7.12502
lthumb -7.69092 1.12327
rfemur -7.98145 30.8438 19.0563
rtibia 0.519236
rfoot -10.5055 -30.2482
rtoes 0.856652
lfemur 4.17607 -58.0761 -12.4826
ltibia -4.86745
lfoot -53.5171 64.828
ltoes 28.9527
1455
root 0.188142 17.5251 7.98776 11.8685 -2.87471 -7.76107
lowerback 3.18314 1.46997 7.63004
upperback -7.25612 2.64786 0.738012
thorax -9.2157 0.77605 -3.76658
lowerneck -7.57235 -6.17815 -3.88433
upperneck 35.047 -9.73377 3.80821
head 13.463 -4.35304 0.851309
rclavicle -2.40281e-014 -7.15625e-015
rhumerus 29.298 33.2975 -50.4823
rradius 131.77
rwrist 0.4684
rhand 46.5993 -38.7952
rfingers 7.12502
rthumb 67.5838 -40.9813
lclavicle -2.40281e-014 -7.15625e-015
lhumerus -18.4756 -63.8209 70.0215
lradius 105.972
lwrist -4.88065
lhand -34.3484 -28.543
lfingers 7.12502
lthumb -7.51584 1.3035
rfemur -8.02223 30.836 18.9445
rtibia 0.467695
rfoot -10.454 -30.3107
rtoes 0.621116
lfemur 4.08656 -58.2873 -12.4843
ltibia -4.82895
lfoot -53.8618 64.8549
ltoes 29.1975
1456
root 0.187922 17.5243 7.9808 11.9087 -2.81545 -7.70302
lowerback 3.22075 1.39818 7.62643
upperback -7.19314 2.55933 0.844278
thorax -9.18359 0.740292 -3.64257
lowerneck -7.3915 -6.06464 -3.91988
upperneck 34.7058 -9.49826 3.71003
head 13.255 -4.27625 0.861545
rclavicle 4.08751e-015 -2.3059e-014
rhumerus 29.5638 34.0052 -49.8351
rradius 132.029
rwrist -0.621845
rhand 46.1199 -38.4007
rfingers 7.12502
rthumb 67.2299 -41.364
lclavicle 4.08751e-015 -2.3059e-014
lhumerus -18.7277 -63.8122 70.2678
lradius 105.996
lwrist -5.0684
lhand -34.6409 -28.6972
lfingers 7.12502
lthumb -7.79817 1.13902
rfemur -8.06231 30.8785 18.8354
rtibia 0.400229
rfoot -10.4739 -30.4058
rtoes 0.710002
lfemur 4.07284 -58.8072 -12.5449
ltibia -4.77061
lfoot -54.9869 64.977
ltoes 29.5313
